<svg width="960" height="240" viewBox="0 0 960 240" fill="none" xmlns="http://www.w3.org/2000/svg" role="img" aria-labelledby="title desc">
  <title id="title">Plyboard</title>
  <desc id="desc">Plyboard wordmark with layered board icon</desc>
  <rect width="960" height="240" rx="24" fill="#F7F2E8"/>
  <g transform="translate(70 54)">
    <path d="M28 50C28 34.536 40.536 22 56 22H166C181.464 22 194 34.536 194 50V116C194 131.464 181.464 144 166 144H56C40.536 144 28 131.464 28 116V50Z" fill="#12312B"/>
    <path d="M47 73C47 57.536 59.536 45 75 45H185C200.464 45 213 57.536 213 73V139C213 154.464 200.464 167 185 167H75C59.536 167 47 154.464 47 139V73Z" fill="#F0B44C" stroke="#12312B" stroke-width="8"/>
    <path d="M76 82H176" stroke="#12312B" stroke-width="10" stroke-linecap="round"/>
    <path d="M76 111H158" stroke="#12312B" stroke-width="10" stroke-linecap="round"/>
    <path d="M76 140H132" stroke="#12312B" stroke-width="10" stroke-linecap="round"/>
    <circle cx="182" cy="137" r="15" fill="#D94C3D" stroke="#12312B" stroke-width="7"/>
  </g>
  <g fill="#12312B">
    <path d="M330.664 71.6H377.304C389.464 71.6 398.851 74.373 405.464 79.92C412.184 85.36 415.544 93.04 415.544 102.96C415.544 112.88 412.184 120.613 405.464 126.16C398.851 131.6 389.464 134.32 377.304 134.32H350.664V168H330.664V71.6ZM375.064 117.44C381.571 117.44 386.504 116.213 389.864 113.76C393.224 111.307 394.904 107.68 394.904 102.88C394.904 98.08 393.224 94.507 389.864 92.16C386.504 89.707 381.571 88.48 375.064 88.48H350.664V117.44H375.064Z"/>
    <path d="M426.868 68.4H446.228V168H426.868V68.4Z"/>
    <path d="M526.618 99.36L486.538 192.56H467.978L480.778 163.6L451.978 99.36H472.458L490.378 142.8L508.298 99.36H526.618Z"/>
    <path d="M575.102 98.08C584.702 98.08 592.382 101.28 598.142 107.68C603.902 114.08 606.782 122.773 606.782 133.76C606.782 144.747 603.902 153.493 598.142 160C592.382 166.4 584.702 169.6 575.102 169.6C570.195 169.6 565.715 168.587 561.662 166.56C557.715 164.533 554.515 161.653 552.062 157.92V168H533.022V68.4H552.382V108.64C554.835 105.227 557.982 102.613 561.822 100.8C565.662 98.987 570.088 98.08 575.102 98.08ZM569.742 154.56C575.182 154.56 579.502 152.747 582.702 149.12C585.902 145.493 587.502 140.373 587.502 133.76C587.502 127.253 585.902 122.213 582.702 118.64C579.502 114.96 575.182 113.12 569.742 113.12C564.302 113.12 559.982 114.96 556.782 118.64C553.582 122.213 551.982 127.253 551.982 133.76C551.982 140.373 553.582 145.493 556.782 149.12C559.982 152.747 564.302 154.56 569.742 154.56Z"/>
    <path d="M651.186 169.6C640.092 169.6 631.239 166.4 624.626 160C618.119 153.6 614.866 144.907 614.866 133.92C614.866 122.827 618.119 114.08 624.626 107.68C631.239 101.28 640.092 98.08 651.186 98.08C662.279 98.08 671.079 101.28 677.586 107.68C684.199 114.08 687.506 122.827 687.506 133.92C687.506 144.907 684.199 153.6 677.586 160C671.079 166.4 662.279 169.6 651.186 169.6ZM651.186 154.56C656.626 154.56 660.839 152.747 663.826 149.12C666.919 145.387 668.466 140.32 668.466 133.92C668.466 127.413 666.919 122.347 663.826 118.72C660.839 114.987 656.626 113.12 651.186 113.12C645.746 113.12 641.479 114.987 638.386 118.72C635.399 122.347 633.906 127.413 633.906 133.92C633.906 140.32 635.399 145.387 638.386 149.12C641.479 152.747 645.746 154.56 651.186 154.56Z"/>
    <path d="M727.623 98.08C737.116 98.08 744.263 100.373 749.063 104.96C753.863 109.547 756.263 116.48 756.263 125.76V168H737.863V158.08C736.37 161.6 733.81 164.373 730.183 166.4C726.663 168.533 722.503 169.6 717.703 169.6C713.01 169.6 708.743 168.693 704.903 166.88C701.17 165.067 698.236 162.56 696.103 159.36C693.97 156.16 692.903 152.587 692.903 148.64C692.903 143.733 694.13 139.947 696.583 137.28C699.143 134.507 703.303 132.533 709.063 131.36C714.823 130.187 722.823 129.6 733.063 129.6H737.543V126.56C737.543 121.867 736.53 118.453 734.503 116.32C732.583 114.187 729.33 113.12 724.743 113.12C717.49 113.12 710.13 115.2 702.663 119.36L697.303 105.92C701.036 103.467 705.73 101.547 711.383 100.16C717.143 98.773 722.556 98.08 727.623 98.08ZM721.703 156.16C726.29 156.16 730.076 154.613 733.063 151.52C736.05 148.32 737.543 144.267 737.543 139.36V136.64H734.343C728.05 136.64 723.143 136.907 719.623 137.44C716.21 137.973 713.756 138.933 712.263 140.32C710.876 141.6 710.183 143.413 710.183 145.76C710.183 148.853 711.25 151.36 713.383 153.28C715.516 155.2 718.29 156.16 721.703 156.16Z"/>
    <path d="M812.582 99.04L812.262 116.96C808.742 115.573 805.382 114.88 802.182 114.88C796.422 114.88 792.048 116.533 789.062 119.84C786.075 123.04 784.582 127.413 784.582 132.96V168H765.222V99.36H784.102V111.44C787.622 102.853 794.608 98.56 805.062 98.56C807.302 98.56 809.808 98.72 812.582 99.04Z"/>
    <path d="M886.884 68.4V168H867.684V157.76C865.231 161.493 862.031 164.427 858.084 166.56C854.138 168.587 849.658 169.6 844.644 169.6C835.044 169.6 827.364 166.4 821.604 160C815.844 153.493 812.964 144.747 812.964 133.76C812.964 122.773 815.844 114.08 821.604 107.68C827.364 101.28 835.044 98.08 844.644 98.08C849.551 98.08 853.978 99.04 857.924 100.96C861.871 102.88 865.018 105.6 867.364 109.12V68.4H886.884ZM850.244 154.56C855.684 154.56 860.004 152.747 863.204 149.12C866.404 145.493 868.004 140.373 868.004 133.76C868.004 127.253 866.404 122.213 863.204 118.64C860.004 114.96 855.684 113.12 850.244 113.12C844.804 113.12 840.484 114.96 837.284 118.64C834.084 122.213 832.484 127.253 832.484 133.76C832.484 140.373 834.084 145.493 837.284 149.12C840.484 152.747 844.804 154.56 850.244 154.56Z"/>
  </g>
</svg>
